<svg xmlns="http://www.w3.org/2000/svg" xmlns:xlink="http://www.w3.org/1999/xlink" aria-hidden="true" role="img" class="iconify iconify--logos" width="32" height="32" preserveAspectRatio="xMidYMid meet" viewBox="0 0 256 249"><path fill="#00D8FF" d="M210.729 75.507l-87.141-50.24a10.263 10.263 0 0 0-10.264 0L45.275 75.573a10.263 10.263 0 0 0-5.132 8.884v100.464a10.263 10.263 0 0 0 5.132 8.884l37.454 21.609v-42.337c0-7.907 6.405-14.312 14.312-14.312h63.67c7.907 0 14.312 6.405 14.312 14.312v42.337l37.454-21.609a10.263 10.263 0 0 0 5.132-8.884V84.457a10.263 10.263 0 0 0-5.132-8.884z"></path><path fill="#00D8FF" d="M172.279 129.678l-26.42-45.736c-1.24-2.157-3.805-3.446-6.495-3.446h-52.84c-2.69 0-5.255 1.289-6.495 3.446l-26.42 45.736c-1.24 2.157-1.24 4.812 0 6.969l26.42 45.736c1.24 2.157 3.805 3.446 6.495 3.446h52.84c2.69 0 5.255-1.289 6.495-3.446l26.42-45.736c1.24-2.157 1.24-4.812 0-6.969z"></path></svg>